# xmcd CD database file
#
# Track frame offsets:
#	182
#	36305
#	60490
#	79840
#	94010
#	107490
#	123097
#	140187
#	181490
#	231067
#	245737
#	260167
#
# Disc length: 4359 seconds
#
# Revision: 2
# Processed by: cddbd v1.5.1PL0 Copyright (c) Steve Scherf et al.
# Submitted via: CDex 1.51
#
DISCID=a711050c
DTITLE=The Choir of New College Oxford - Agnus Dei
DYEAR=1996
DGENRE=Classical
TTITLE0=Agnus Dei op 11 (Barber)
TTITLE1=Cantique de Jean Racine op 11 (Faure)
TTITLE2=Kyrie (Missa Papae Marcelli) (Palesrina)
TTITLE3=Ave Verum Corpus K 618 (Mozart)
TTITLE4=Jesus bleibet meine Freude BWV 147 (Bach)
TTITLE5=Ave Maria op 37:6 (Rachmaninov)
TTITLE6=Lux Aeterna (Elgar)
TTITLE7=Totus Tuus (Gorecki)
TTITLE8=Hear my prayer (Mendelssohn)
TTITLE9=The Lamb (Tavener)
TTITLE10=In paradisum (Requiem) (Faure)
TTITLE11=Miserere mei, Deus (Gregorio)
EXTD=YEAR: 1996
EXTT0=
EXTT1=
EXTT2=
EXTT3=
EXTT4=
EXTT5=
EXTT6=
EXTT7=
EXTT8=
EXTT9=
EXTT10=
EXTT11=
PLAYORDER=
